<?xml version="1.0" standalone="no"?>
<!DOCTYPE svg PUBLIC "-//W3C//DTD SVG 20010904//EN"
 "http://www.w3.org/TR/2001/REC-SVG-20010904/DTD/svg10.dtd">
<svg version="1.0" xmlns="http://www.w3.org/2000/svg"
 width="1280.000000pt" height="640.000000pt" viewBox="0 0 1280.000000 640.000000"
 preserveAspectRatio="xMidYMid meet">
<metadata>
Created by potrace 1.15, written by Peter Selinger 2001-2017
</metadata>
<g transform="translate(0.000000,640.000000) scale(0.100000,-0.100000)"
fill="#000000" stroke="none">
<path d="M1502 5775 c-17 -8 -41 -30 -53 -49 -13 -22 -26 -33 -35 -29 -23 9
-63 -6 -74 -27 -7 -14 -6 -31 4 -60 14 -41 14 -42 -7 -36 -111 31 -151 38
-155 28 -8 -24 -46 -64 -69 -73 -18 -7 -32 -4 -61 15 -121 78 -182 43 -147
-84 33 -123 13 -219 -71 -336 -30 -42 -68 -103 -85 -135 -38 -76 -69 -206 -69
-291 0 -67 0 -67 -36 -84 -46 -22 -63 -48 -74 -120 -8 -51 -5 -82 25 -234 139
-711 184 -1418 120 -1876 -44 -315 -139 -561 -273 -705 -73 -79 -171 -147
-224 -155 -21 -4 -38 -10 -38 -14 0 -10 -90 -30 -136 -30 -54 0 -32 -16 42
-30 75 -14 158 -9 224 15 25 9 65 20 90 24 82 15 239 60 279 80 96 50 217 193
281 335 17 36 32 66 34 66 6 0 -32 -172 -58 -263 -51 -172 -136 -326 -234
-419 -62 -59 -91 -72 -199 -87 l-58 -7 45 -14 c42 -13 43 -14 16 -18 -16 -2
-35 -9 -42 -16 -7 -7 -48 -19 -91 -26 -68 -11 -75 -14 -53 -22 49 -20 191 -21
250 -2 35 11 82 16 129 15 130 -3 246 33 329 104 23 20 58 37 92 45 67 15 155
60 210 107 22 19 40 33 40 31 0 -25 -94 -226 -132 -282 -59 -85 -169 -186
-205 -186 -13 0 -22 -4 -18 -10 12 -19 -109 -63 -240 -86 l-40 -7 50 -13 c102
-25 222 -11 316 37 22 11 46 18 52 16 29 -11 -119 -62 -238 -83 -38 -6 -39 -7
-15 -16 29 -11 520 -55 720 -64 87 -4 155 -3 190 5 30 6 90 15 133 21 42 5 91
17 108 26 87 45 179 169 243 327 108 268 390 1237 682 2342 26 99 49 182 50
184 2 2 59 -44 128 -102 118 -98 213 -173 581 -456 180 -139 382 -336 455
-445 157 -235 238 -538 280 -1051 27 -320 71 -445 210 -586 89 -91 175 -138
319 -176 84 -22 117 -26 261 -26 108 0 204 6 279 17 248 38 567 132 848 250
175 74 219 91 283 112 174 56 650 323 1180 662 107 68 203 129 213 136 14 9
20 8 28 -4 5 -8 41 -64 79 -125 149 -233 206 -386 230 -615 14 -139 24 -172
61 -215 80 -91 307 -113 589 -55 95 19 113 20 268 10 124 -9 227 -9 410 0 295
14 325 18 364 57 31 32 50 105 29 117 -6 4 -33 -3 -61 -15 -49 -21 -53 -21
-85 -6 -19 9 -65 21 -102 28 -185 30 -172 25 -322 141 -34 25 -100 68 -149 94
-48 26 -115 66 -148 90 -145 102 -334 349 -489 639 -56 104 -53 105 13 7 245
-367 717 -686 1317 -890 83 -28 213 -70 290 -92 77 -23 177 -60 223 -82 91
-45 192 -131 192 -164 0 -39 31 -112 65 -151 89 -104 279 -119 510 -41 89 29
535 68 910 78 328 9 415 19 468 54 47 32 57 69 30 114 -12 21 -27 36 -35 35
-7 -1 -49 -11 -93 -23 -145 -36 -242 -23 -344 48 -131 92 -345 172 -675 251
-305 74 -599 237 -1021 567 -71 56 -189 153 -260 215 -72 63 -366 314 -655
558 -289 245 -573 491 -632 547 -85 81 -123 110 -190 143 -45 23 -110 46 -143
52 -112 21 -262 -7 -356 -66 l-39 -25 -14 32 c-97 225 -168 393 -273 648 -143
348 -168 400 -230 488 -151 213 -356 237 -633 75 -122 -71 -366 -255 -493
-370 -171 -156 -498 -506 -871 -931 l-160 -183 -40 7 c-58 9 -107 37 -149 83
-50 55 -80 118 -117 245 -38 132 -84 234 -177 391 -73 124 -229 348 -326 469
l-56 70 28 40 c52 77 100 171 126 251 49 144 24 274 -66 350 -106 88 -325 144
-569 145 -247 0 -533 29 -870 86 -136 23 -153 28 -275 89 -152 75 -280 115
-371 115 -120 0 -496 92 -722 176 -166 62 -303 138 -385 213 -74 68 -140 90
-195 66z m-658 -1945 c52 -386 61 -512 61 -900 0 -301 -3 -387 -18 -493 -46
-318 -139 -565 -266 -707 l-41 -45 49 95 c113 218 180 514 211 930 20 276 6
977 -26 1255 -4 33 -4 58 -1 55 3 -3 17 -88 31 -190z m341 -1115 c12 -376 -24
-711 -106 -965 -22 -68 -108 -254 -115 -247 -2 2 9 40 26 84 86 236 130 542
150 1028 6 143 13 310 17 370 l8 110 6 -80 c4 -44 10 -179 14 -300z m-159
-110 c-6 -248 -53 -453 -147 -650 -54 -115 -74 -135 -34 -35 87 218 146 518
162 825 6 106 8 115 15 75 5 -25 7 -121 4 -215z m713 -87 c14 -379 -7 -653
-71 -921 -21 -91 -38 -116 -19 -29 44 206 64 475 65 859 1 182 5 325 9 317 4
-8 12 -110 16 -226z m-275 56 c16 -265 -48 -659 -143 -879 -37 -85 -40 -74 -6
25 62 182 111 513 122 819 7 199 16 211 27 35z m134 -114 c0 -58 -4 -134 -8
-170 -4 -42 -7 22 -7 175 0 156 3 215 7 170 4 -38 8 -117 8 -175z m-18 -765
c-36 -253 -96 -447 -183 -588 -26 -43 -104 -114 -114 -104 -2 2 14 31 36 63
70 106 140 289 176 459 9 44 32 125 52 180 19 55 37 106 39 114 13 41 10 -9
-6 -124z m-136 28 c-5 -33 -69 -163 -79 -163 -2 0 9 28 24 63 16 34 34 79 40
100 7 20 15 37 17 37 3 0 2 -17 -2 -37z m150 -580 c-15 -71 -39 -100 -141
-171 -55 -39 -48 -24 29 56 41 43 83 93 94 110 23 39 26 40 18 5z m-394 -253
c0 -5 -10 -10 -22 -9 -22 0 -22 1 -3 9 11 5 21 9 23 9 1 1 2 -3 2 -9z"/>
</g>
</svg>
