<?xml version="1.0" standalone="no"?>
<!DOCTYPE svg PUBLIC "-//W3C//DTD SVG 20010904//EN"
 "http://www.w3.org/TR/2001/REC-SVG-20010904/DTD/svg10.dtd">
<svg version="1.0" xmlns="http://www.w3.org/2000/svg"
 width="971.000000pt" height="1280.000000pt" viewBox="0 0 971.000000 1280.000000"
 preserveAspectRatio="xMidYMid meet">
<metadata>
Created by potrace 1.15, written by Peter Selinger 2001-2017
</metadata>
<g transform="translate(0.000000,1280.000000) scale(0.100000,-0.100000)"
fill="#000000" stroke="none">
<path d="M6214 11898 c-38 -54 -47 -89 -42 -165 4 -63 13 -93 42 -154 40 -85
44 -127 20 -185 -19 -46 -32 -90 -78 -279 -48 -195 -66 -307 -66 -401 0 -60
-6 -99 -26 -155 -14 -41 -29 -92 -34 -114 -4 -22 -16 -74 -25 -115 -9 -41 -20
-109 -25 -150 -8 -74 -35 -247 -44 -285 -3 -11 -12 -56 -21 -100 -29 -140 -46
-208 -75 -295 -49 -148 -138 -433 -156 -500 -10 -36 -26 -83 -36 -105 -10 -22
-18 -50 -18 -61 0 -12 -8 -43 -19 -70 -29 -78 -42 -116 -57 -164 -20 -68 -108
-315 -143 -400 -17 -41 -44 -115 -62 -165 -17 -49 -39 -108 -49 -130 -32 -68
-70 -173 -70 -189 0 -9 -4 -24 -10 -34 -13 -24 -51 -128 -89 -247 -18 -55 -39
-114 -46 -130 -8 -17 -19 -53 -26 -80 -6 -28 -18 -66 -25 -85 -8 -19 -21 -66
-29 -105 -15 -74 -24 -108 -75 -275 -18 -58 -34 -117 -37 -131 -3 -15 -29 -58
-58 -95 -56 -71 -113 -161 -130 -204 -5 -14 -27 -50 -48 -80 -20 -31 -43 -78
-51 -105 -20 -74 -43 -169 -67 -275 -29 -130 -56 -210 -101 -307 -21 -46 -38
-85 -38 -88 0 -12 -64 -171 -77 -190 -7 -11 -13 -26 -13 -35 0 -8 -7 -28 -16
-45 -38 -72 -154 -345 -160 -376 -4 -19 -13 -46 -20 -60 -17 -33 -62 -162 -75
-211 -5 -20 -15 -52 -23 -70 -15 -34 -40 -121 -131 -453 -7 -27 -25 -88 -38
-135 -14 -47 -28 -100 -31 -118 -12 -68 -38 -142 -50 -142 -20 0 -103 93 -115
129 -17 51 -13 109 11 181 20 59 22 86 22 289 l1 224 65 54 c184 155 257 262
301 439 29 120 22 188 -27 290 -32 64 -54 91 -143 175 -58 55 -120 107 -137
117 -59 33 -97 57 -122 78 -25 21 -26 22 -9 48 10 14 35 35 57 46 43 22 110
114 110 152 0 11 9 35 19 52 25 41 35 96 26 151 -5 35 -15 54 -41 78 -32 29
-35 35 -30 72 10 68 -7 113 -65 171 -61 62 -61 86 -2 131 64 50 114 96 125
117 27 49 41 159 38 297 -2 104 12 197 45 303 20 67 19 132 -5 185 -11 24 -20
55 -20 70 0 50 -79 228 -127 285 -19 22 -22 35 -17 62 5 26 0 44 -20 78 -14
25 -26 50 -26 56 0 17 -83 110 -98 110 -15 0 -58 29 -130 89 -72 59 -118 81
-169 81 -28 0 -46 5 -49 14 -3 8 -20 17 -39 20 -18 4 -49 18 -69 31 -20 14
-41 25 -47 25 -6 0 -27 11 -47 25 -26 18 -50 25 -83 25 -47 0 -47 0 -79 57
-18 31 -50 75 -72 98 -22 22 -64 72 -92 110 -61 82 -270 303 -536 566 -142
141 -197 190 -226 199 -22 7 -48 18 -59 25 -48 30 -204 75 -258 75 -52 0 -57
2 -63 24 -6 25 2 62 17 81 23 30 68 128 74 164 l7 41 53 0 c41 0 63 -6 91 -25
35 -24 64 -31 76 -20 8 8 -16 84 -45 145 -33 70 -189 233 -239 249 -29 9 -37
19 -48 54 -7 23 -14 62 -16 87 -7 103 -20 196 -32 218 -15 25 -16 26 -43 11
-16 -8 -26 -5 -55 20 -19 17 -41 31 -49 31 -7 0 -27 12 -44 26 -59 49 -61 41
-61 -219 0 -222 -1 -236 -21 -261 -11 -14 -34 -33 -50 -41 -22 -12 -42 -42
-83 -128 -61 -128 -76 -168 -76 -209 0 -34 -30 -95 -59 -122 -33 -30 -57 -74
-86 -161 -16 -44 -65 -153 -110 -242 -132 -259 -128 -240 -134 -568 -5 -215
-9 -286 -20 -305 -10 -18 -15 -70 -18 -180 -2 -85 -8 -177 -14 -205 -5 -27
-12 -203 -14 -390 -5 -377 -17 -622 -34 -705 -37 -185 -52 -416 -39 -615 7
-112 15 -157 38 -225 31 -89 111 -248 153 -303 63 -83 115 -201 142 -322 14
-66 32 -142 40 -170 8 -27 22 -77 31 -110 49 -180 45 -168 109 -340 15 -38 35
-88 45 -110 10 -22 22 -52 25 -67 4 -15 13 -32 21 -39 8 -6 14 -17 14 -23 1
-6 9 -29 20 -51 11 -22 19 -44 20 -48 0 -5 11 -32 25 -60 38 -81 75 -182 75
-204 0 -11 7 -26 15 -33 8 -6 17 -22 21 -33 6 -21 128 -270 184 -377 76 -145
268 -428 366 -540 83 -95 177 -216 238 -305 18 -27 68 -88 110 -135 43 -47 95
-108 116 -136 50 -63 110 -178 110 -208 0 -13 10 -49 21 -82 12 -32 28 -93 35
-134 8 -41 17 -88 21 -105 3 -16 11 -37 18 -45 6 -8 19 -48 29 -88 16 -69 103
-251 150 -315 46 -63 181 -203 210 -219 17 -9 54 -41 82 -70 46 -48 99 -82
297 -190 18 -10 42 -18 55 -18 12 0 33 -6 45 -14 12 -8 48 -21 80 -30 33 -8
66 -21 75 -29 18 -14 138 -57 162 -57 8 0 27 -12 42 -27 23 -22 40 -28 90 -31
35 -2 68 -8 73 -13 18 -13 443 -22 515 -10 36 6 103 16 150 21 121 13 157 19
225 37 33 8 82 19 108 24 27 4 54 12 60 17 7 6 39 16 72 23 33 7 69 18 80 26
11 7 46 13 78 13 47 0 65 5 91 25 17 13 83 40 146 60 63 19 167 61 230 93 109
54 122 63 240 182 127 127 186 200 261 325 24 39 57 86 74 105 17 19 50 76 73
125 24 50 57 116 73 148 16 31 29 67 29 79 0 12 7 44 15 72 42 147 75 394 75
575 1 101 8 174 30 286 43 224 70 456 80 680 4 94 13 208 19 255 10 63 11 214
7 590 -7 589 4 788 51 934 73 231 119 330 181 396 24 25 58 62 74 83 17 21 99
98 182 172 277 244 404 395 518 615 10 19 22 42 27 50 23 41 108 265 121 320
4 19 24 73 43 120 19 47 44 119 56 160 13 41 28 93 35 115 8 22 19 60 26 85
24 90 44 157 71 240 15 47 40 128 54 180 14 52 35 119 46 147 11 29 29 79 41
110 11 32 27 72 34 89 8 18 28 74 44 125 40 122 114 311 145 370 14 26 25 54
25 63 0 17 48 101 86 151 13 17 24 38 24 46 0 18 48 94 79 127 12 12 34 22 49
22 15 0 66 16 112 35 72 29 94 44 143 96 31 34 60 74 63 88 3 14 12 43 20 64
8 22 14 77 15 135 1 200 43 422 102 539 15 29 27 68 27 88 0 32 -4 38 -36 51
-49 21 -66 12 -93 -48 -120 -265 -205 -384 -186 -264 10 65 34 178 45 216 31
103 60 261 60 324 0 208 -172 439 -448 600 -7 5 -43 14 -80 22 -60 13 -68 12
-96 -4 -17 -10 -46 -38 -65 -62 l-34 -45 7 -95 c3 -52 12 -120 20 -150 8 -30
17 -91 21 -135 6 -74 4 -87 -28 -180 -19 -55 -54 -145 -77 -200 -42 -100 -67
-176 -95 -292 -8 -35 -22 -80 -31 -100 -9 -21 -20 -78 -25 -128 -7 -90 -48
-290 -64 -315 -5 -7 -12 -30 -16 -49 -27 -132 -222 -580 -291 -670 -10 -13
-18 -29 -18 -35 0 -12 -5 -21 -62 -126 -77 -141 -232 -386 -314 -496 -59 -79
-83 -112 -106 -148 -64 -99 -110 -162 -161 -226 -34 -41 -80 -100 -104 -130
-24 -30 -55 -66 -68 -80 -14 -14 -25 -29 -25 -33 0 -5 -22 -34 -49 -65 -54
-64 -160 -201 -208 -271 -73 -104 -88 -128 -109 -171 -24 -52 -51 -83 -65 -75
-13 9 -11 49 3 63 11 11 27 93 47 247 15 110 31 398 32 577 0 89 5 199 10 243
5 44 13 154 18 245 6 90 15 185 20 210 6 25 18 122 26 215 9 94 21 188 27 210
6 22 14 67 19 100 9 65 52 262 67 310 30 92 42 134 42 148 0 8 11 40 25 71 14
31 25 65 25 76 0 11 14 35 30 53 17 19 30 39 30 44 0 23 42 44 118 57 117 21
204 87 253 195 l29 64 0 241 c0 286 7 329 94 571 33 92 35 101 20 123 -13 19
-22 23 -61 20 -28 -2 -49 -9 -54 -18 -8 -15 -70 -148 -116 -250 -62 -136 -149
-275 -172 -275 -20 0 -50 133 -51 225 0 41 7 109 16 150 8 41 20 100 26 130 6
30 17 78 26 105 10 31 16 87 17 145 0 94 -1 96 -37 150 -21 30 -51 64 -67 75
-15 11 -53 38 -82 61 -72 54 -205 124 -304 159 -44 15 -98 36 -121 46 -48 22
-49 23 -60 7z m-4389 -2940 c90 -81 264 -309 330 -433 20 -38 43 -77 50 -85 7
-8 35 -55 60 -105 26 -49 54 -97 61 -106 21 -24 17 -38 -13 -51 -16 -7 -43
-25 -61 -40 l-33 -28 -38 20 c-52 26 -87 70 -94 118 -15 94 -77 61 -77 -41 0
-25 -6 -49 -12 -55 -7 -5 -40 -12 -73 -15 -113 -11 -156 -29 -202 -86 -42 -51
-43 -53 -43 -130 0 -73 -2 -79 -22 -85 -50 -13 -78 -7 -88 20 -6 15 -10 196
-10 443 0 354 -2 424 -15 455 -16 37 -14 85 6 136 5 14 32 39 60 55 28 17 60
38 72 47 40 32 78 23 142 -34z"/>
</g>
</svg>
