<?xml version="1.0" standalone="no"?>
<!DOCTYPE svg PUBLIC "-//W3C//DTD SVG 20010904//EN"
 "http://www.w3.org/TR/2001/REC-SVG-20010904/DTD/svg10.dtd">
<svg version="1.0" xmlns="http://www.w3.org/2000/svg"
 width="1280.000000pt" height="1280.000000pt" viewBox="0 0 1280.000000 1280.000000"
 preserveAspectRatio="xMidYMid meet">
<metadata>
Created by potrace 1.15, written by Peter Selinger 2001-2017
</metadata>
<g transform="translate(0.000000,1280.000000) scale(0.100000,-0.100000)"
fill="#000000" stroke="none">
<path d="M6968 12393 c7 -3 16 -2 19 1 4 3 -2 6 -13 5 -11 0 -14 -3 -6 -6z"/>
<path d="M6848 12371 c-37 -4 -73 -13 -81 -19 -16 -14 -93 -17 -214 -9 -113 8
-171 -2 -223 -38 -27 -18 -48 -26 -65 -23 -14 3 -30 -1 -36 -8 -6 -8 -17 -14
-24 -14 -7 0 -32 -17 -56 -39 -25 -21 -80 -56 -124 -77 -95 -46 -206 -151
-275 -262 -41 -66 -72 -113 -186 -282 -20 -30 -55 -88 -76 -129 -83 -157 -167
-288 -221 -345 -31 -32 -54 -62 -51 -67 3 -5 -2 -24 -11 -43 -9 -19 -13 -41
-9 -47 5 -9 10 -7 15 7 6 15 8 12 8 -13 1 -18 -3 -33 -7 -33 -12 0 -30 -42
-25 -58 4 -10 8 -10 21 0 15 12 16 11 3 -5 -10 -13 -17 -15 -27 -6 -8 6 -15 8
-15 3 -1 -5 -5 9 -10 31 -7 34 -4 49 22 99 36 73 30 85 -10 20 -32 -50 -39
-93 -21 -138 6 -17 6 -35 0 -52 -7 -18 -7 -23 1 -18 7 4 10 1 7 -7 -3 -8 -10
-13 -16 -12 -7 2 -9 -4 -5 -14 4 -10 2 -14 -4 -10 -11 7 -28 -71 -18 -81 3 -3
5 3 5 14 0 26 69 141 89 149 11 4 9 -1 -5 -17 -28 -30 -47 -68 -39 -76 3 -4
11 0 16 8 7 11 8 2 4 -28 -9 -57 -10 -210 -2 -290 7 -68 -7 -118 -24 -91 -6
10 -9 8 -9 -9 0 -13 -4 -20 -10 -17 -6 3 -10 -4 -10 -18 0 -13 -10 -50 -23
-83 -13 -32 -30 -87 -37 -121 -14 -61 -24 -77 -33 -50 -2 6 -3 4 -1 -7 1 -10
-17 -55 -41 -100 -40 -73 -46 -93 -55 -179 -5 -53 -18 -118 -28 -145 -11 -28
-20 -80 -21 -122 l-2 -74 -60 -56 -59 -55 0 -126 c0 -189 -6 -201 -143 -296
-163 -112 -237 -176 -278 -241 -33 -51 -36 -63 -32 -105 3 -26 12 -52 21 -59
13 -11 14 -10 4 9 -7 12 -12 30 -12 40 0 12 5 9 16 -12 8 -16 21 -37 29 -45
11 -13 11 -21 -2 -50 -8 -19 -16 -55 -18 -80 -2 -25 -4 -54 -6 -65 -1 -11 -2
-42 -1 -68 2 -40 7 -54 32 -77 29 -27 39 -50 21 -50 -5 0 -11 10 -14 22 -4 12
-9 20 -12 17 -3 -3 0 -20 6 -38 6 -17 8 -38 5 -47 -3 -9 -2 -12 4 -9 7 4 8 -9
5 -37 -3 -24 -8 -59 -11 -78 -4 -31 -3 -33 8 -15 6 11 14 52 16 90 6 108 23
117 20 10 -2 -92 -15 -125 -47 -125 -12 0 -12 -3 -3 -12 18 -18 15 -39 -13
-101 -13 -31 -32 -96 -41 -144 -22 -117 -21 -113 -38 -107 -26 10 -27 37 -2
88 l25 51 -25 -30 c-13 -16 -24 -39 -25 -50 0 -11 -3 -14 -6 -7 -7 17 -23 5
-23 -19 0 -10 -6 -19 -13 -19 -8 0 -12 -14 -12 -39 0 -30 2 -37 12 -30 9 8 11
3 7 -23 -3 -18 -1 -44 5 -58 8 -21 10 -17 10 31 1 56 19 89 49 89 20 0 14 -34
-49 -295 -36 -147 -51 -375 -30 -436 7 -21 8 -35 2 -39 -12 -7 -5 -161 8 -205
8 -24 9 -14 10 51 1 63 4 83 16 88 24 9 29 -36 15 -152 -14 -125 -37 -258 -39
-222 -2 48 -20 4 -40 -101 -11 -58 -25 -118 -31 -133 -13 -35 -13 -36 4 -36 8
0 17 6 20 13 4 6 4 -3 1 -22 -3 -19 -14 -100 -25 -180 -28 -200 -36 -239 -56
-292 -14 -37 -16 -56 -8 -95 9 -51 -10 -339 -26 -380 -9 -23 -77 -36 -390 -75
-462 -57 -784 -140 -1342 -343 -130 -47 -243 -86 -251 -86 -32 0 -28 23 9 61
21 21 42 39 47 39 5 0 41 13 80 29 40 15 106 34 147 41 89 15 100 23 68 44
-22 14 -31 13 -121 -9 -53 -13 -106 -30 -117 -38 -20 -14 -20 -15 -3 -22 15
-6 11 -10 -21 -21 -21 -8 -49 -11 -61 -8 -14 3 -40 -3 -66 -16 -25 -13 -64
-23 -92 -24 l-48 -1 26 23 c24 20 24 22 6 22 -11 0 -33 -11 -48 -24 l-28 -25
-28 27 -29 27 7 -27 c5 -21 3 -29 -9 -34 -13 -5 -14 -9 -5 -20 7 -8 10 -16 8
-17 -25 -19 -494 -227 -510 -227 -13 0 -11 21 4 54 11 25 16 27 52 22 38 -6
39 -5 16 8 -17 10 -20 15 -10 18 31 11 1 16 -46 7 -37 -7 -51 -6 -56 3 -17 29
-38 53 -42 48 -3 -3 -2 -26 2 -52 7 -40 5 -46 -10 -45 -9 1 -15 7 -12 14 4 10
-2 10 -27 2 -27 -10 -36 -9 -62 11 -33 25 -45 21 -29 -8 15 -28 14 -32 -6 -32
-26 0 -44 -14 -47 -36 -3 -19 -53 -51 -63 -40 -3 3 6 11 21 17 14 7 26 18 26
26 0 19 -3 17 -46 -22 -39 -34 -137 -75 -181 -75 -16 0 -27 8 -33 25 -6 15
-17 25 -29 25 -22 0 -51 -35 -51 -61 0 -9 -15 -26 -34 -37 -19 -11 -53 -46
-77 -79 -51 -67 -55 -71 -89 -79 -44 -9 -131 -54 -125 -64 3 -5 34 2 70 15 36
14 65 22 65 19 0 -3 -9 -17 -20 -31 -21 -27 -27 -59 -9 -47 8 4 8 0 0 -15 -7
-11 -17 -21 -23 -21 -7 0 -6 5 2 15 14 17 10 18 -23 6 -21 -8 -26 -6 -35 14
-6 14 -23 27 -37 31 -34 8 -63 -12 -209 -153 l-116 -112 0 -48 c0 -37 4 -51
20 -61 16 -10 20 -23 20 -70 0 -31 4 -73 10 -92 8 -29 7 -37 -11 -56 -12 -13
-19 -32 -17 -46 4 -32 78 -68 138 -68 49 0 132 -27 156 -51 13 -14 13 -18 -4
-40 -28 -36 -33 -57 -20 -84 13 -30 66 -49 116 -42 41 5 174 -48 226 -90 61
-50 85 -57 208 -58 65 -1 121 -4 124 -8 4 -4 24 -7 44 -7 33 0 38 -4 47 -32
l10 -33 8 28 c6 23 13 27 41 27 19 0 43 5 53 12 14 8 29 8 64 0 25 -7 72 -12
104 -11 56 1 57 1 21 10 -21 5 -55 13 -75 18 -31 7 -19 9 62 10 l101 1 -4 -34
c-3 -27 0 -37 18 -46 12 -6 33 -9 46 -6 38 10 28 -2 -24 -28 -27 -13 -55 -32
-63 -42 -13 -15 -12 -16 11 -10 20 6 17 1 -18 -29 -70 -61 -89 -118 -57 -178
14 -26 13 -30 -20 -73 -37 -48 -47 -108 -23 -132 7 -7 13 -20 13 -30 0 -9 5
-17 12 -17 6 0 15 -3 19 -8 4 -4 1 -7 -6 -7 -9 0 -6 -8 8 -23 12 -13 22 -27
22 -33 1 -21 87 -118 113 -127 57 -19 47 8 -23 66 -38 31 -77 71 -86 89 -9 18
-23 41 -32 51 -18 21 -7 22 50 5 28 -8 44 -21 55 -42 37 -74 158 -161 356
-256 102 -48 197 -119 197 -146 0 -16 -23 -18 -48 -4 -39 22 -215 100 -219 97
-9 -10 42 -38 131 -72 54 -22 108 -49 120 -62 26 -27 118 -47 189 -40 39 3 47
1 47 -13 0 -9 9 -25 20 -35 21 -19 72 -15 122 11 15 8 54 14 87 14 41 0 82 8
128 26 60 23 78 25 148 20 53 -4 75 -2 65 4 -12 8 -11 10 8 10 12 0 22 -4 22
-8 0 -20 75 -32 202 -32 l136 0 25 -33 c14 -19 40 -39 59 -45 30 -10 27 -11
-32 -7 -36 2 -76 6 -90 10 -14 3 -7 -2 15 -10 27 -11 64 -15 113 -13 55 2 71
0 67 -9 -3 -8 5 -13 21 -13 19 0 26 -6 30 -30 8 -38 21 -38 29 -1 9 42 26 54
59 41 15 -5 42 -10 59 -9 l32 1 -40 13 c-22 7 -32 13 -23 14 16 1 62 50 55 58
-2 2 -22 -7 -45 -19 -39 -22 -41 -22 -76 -5 -36 17 -55 41 -42 54 3 4 11 2 16
-3 18 -18 147 2 198 32 150 86 141 83 216 78 95 -7 118 -12 110 -26 -5 -7 5
-9 29 -6 20 2 35 1 35 -2 -1 -3 1 -12 5 -20 3 -8 11 -82 17 -165 6 -82 18
-211 26 -285 7 -74 21 -200 29 -280 17 -176 34 -236 83 -294 84 -101 99 -123
110 -166 32 -121 72 -243 86 -265 21 -32 72 -34 110 -4 31 24 35 77 11 155 -8
27 -15 66 -15 87 0 34 2 37 28 37 15 0 32 -4 38 -8 12 -8 58 -119 69 -167 4
-16 20 -58 36 -91 35 -74 66 -93 124 -74 70 23 79 73 35 215 -10 34 -21 86
-25 117 -7 56 -7 57 20 64 14 4 30 3 35 -2 5 -5 20 -50 33 -99 31 -113 79
-220 106 -234 38 -21 100 -13 128 15 29 29 29 40 -8 227 -12 59 -19 110 -17
113 3 3 21 7 40 11 49 7 112 -37 269 -193 130 -129 163 -149 220 -137 31 6 59
36 59 63 0 9 -27 57 -60 106 -130 192 -169 247 -192 271 l-23 25 60 -7 c33 -4
86 -13 118 -21 89 -21 225 -18 292 7 61 23 78 44 73 92 -4 38 -23 49 -123 71
-38 9 -96 30 -128 46 -35 18 -98 38 -156 49 -54 11 -129 31 -165 46 -109 44
-125 47 -271 55 -218 11 -275 46 -336 209 -27 73 -47 216 -50 348 l-2 108 34
0 c19 0 365 -4 769 -8 636 -7 752 -6 864 8 469 56 925 246 1170 488 98 98 155
172 261 347 43 71 82 125 85 120 6 -10 97 180 125 260 15 44 74 267 94 361 6
26 17 105 26 177 13 117 13 142 0 244 -9 62 -19 132 -24 154 -4 23 -7 57 -5
75 7 87 -8 149 -55 227 -26 42 -53 93 -61 112 -7 19 -19 42 -27 51 -10 12 -11
35 -4 110 11 109 29 178 62 234 13 22 29 53 35 70 6 16 23 60 38 98 14 37 21
67 16 67 -6 0 -18 -19 -27 -42 -9 -23 -18 -37 -20 -31 -3 7 14 47 36 91 23 43
41 82 41 87 0 4 11 18 25 31 14 13 25 34 25 48 0 16 10 32 26 43 49 33 129
111 122 119 -4 4 -29 -10 -55 -32 -27 -21 -1 8 56 64 57 56 110 102 118 102
27 0 108 95 149 173 l41 78 13 -58 c8 -32 15 -65 17 -73 1 -8 9 -40 18 -70 8
-30 24 -140 35 -245 12 -104 30 -238 40 -296 22 -118 25 -142 11 -121 -6 10
-10 7 -13 -12 -3 -14 -1 -26 3 -26 5 0 9 -8 10 -17 1 -12 4 -9 9 7 6 23 8 22
14 -15 5 -22 14 -68 22 -103 8 -35 14 -81 14 -103 0 -22 6 -55 14 -73 8 -19
19 -83 25 -142 27 -254 94 -511 228 -874 l75 -205 8 -148 c4 -81 10 -151 14
-155 5 -4 5 49 1 118 -4 79 -3 120 3 110 6 -8 57 -157 116 -331 187 -558 235
-797 236 -1179 0 -237 17 -493 36 -560 40 -138 123 -240 243 -296 102 -48 133
-73 196 -159 128 -173 212 -199 266 -81 10 22 19 52 19 66 0 42 -39 112 -85
156 l-44 41 43 -7 c24 -4 66 -21 93 -38 75 -48 122 -64 193 -66 107 -2 243
-64 474 -214 113 -74 159 -85 214 -52 23 14 32 27 32 45 0 17 -12 37 -32 56
l-33 30 55 -30 c75 -40 196 -87 247 -96 52 -8 109 9 124 37 23 43 5 61 -126
127 -70 34 -125 65 -122 67 2 3 47 -16 100 -42 117 -56 175 -66 206 -35 35 35
23 59 -51 110 -37 25 -71 56 -77 67 -6 15 -31 29 -78 44 -37 12 -111 49 -164
81 -52 32 -113 65 -135 73 -80 28 -241 113 -304 160 -36 26 -110 70 -165 96
-55 26 -139 66 -187 89 -101 48 -323 193 -338 221 -5 10 -10 43 -10 72 0 29
-7 88 -15 131 -14 73 -19 136 -45 512 -20 278 -40 509 -66 748 -20 176 -23
242 -15 250 6 6 11 20 11 31 0 20 0 20 15 0 14 -18 15 -17 9 11 -4 17 -13 37
-20 46 -8 8 -14 23 -14 32 0 8 -9 18 -19 22 -14 4 -23 22 -32 63 -6 31 -13 63
-15 72 -3 8 1 4 7 -10 7 -14 40 -81 74 -150 34 -69 72 -158 84 -199 12 -40 24
-71 27 -68 12 12 -33 133 -104 282 -73 153 -76 163 -79 240 -6 160 -16 261
-28 285 -16 30 -75 88 -75 74 0 -6 12 -21 26 -35 32 -30 54 -71 54 -101 0 -19
-5 -15 -25 20 -13 24 -34 55 -45 70 -14 17 -19 34 -16 48 4 13 2 26 -4 29 -5
3 -10 18 -10 33 0 26 0 26 43 -16 63 -62 67 -51 5 17 -38 43 -62 83 -87 145
l-34 85 26 30 c48 57 51 87 23 213 -39 179 -42 206 -20 224 18 15 18 15 -4 11
-25 -6 -28 2 -36 103 -3 45 -1 70 9 80 18 21 29 60 16 60 -6 0 -11 8 -12 18 0
10 -3 12 -6 4 -6 -16 -23 -6 -23 14 0 10 5 12 13 8 9 -6 9 -5 1 7 -7 8 -15 68
-18 134 -12 208 -26 305 -63 415 -20 58 -37 128 -38 155 -2 28 -5 57 -8 65 -5
15 -21 107 -32 188 -3 23 0 71 6 106 10 54 10 68 -4 96 -17 34 -34 115 -39
190 -3 39 0 45 17 45 16 0 20 -6 18 -30 -2 -26 -1 -27 8 -12 6 11 9 30 6 43
-3 18 0 24 14 24 23 0 25 25 4 34 -9 3 -15 20 -16 43 -1 33 -2 35 -8 11 -6
-26 -7 -26 -27 -9 -19 15 -22 31 -28 161 -8 185 -8 359 0 432 5 41 2 72 -10
107 -9 27 -16 60 -16 73 0 13 -11 39 -25 58 -23 31 -25 43 -25 134 0 125 -17
196 -76 328 -93 208 -174 342 -279 464 -32 37 -33 42 -20 60 15 19 15 19 9 -1
-3 -11 6 0 20 25 13 25 37 57 53 72 26 25 31 26 80 17 47 -9 57 -7 97 15 69
38 97 66 83 81 -7 7 -15 11 -19 9 -3 -2 -17 16 -31 40 -20 36 -22 43 -8 41 9
-1 15 -10 13 -21 -2 -16 -1 -17 8 -4 9 12 10 10 5 -10 -5 -20 -4 -22 5 -10 9
12 10 10 6 -10 -3 -14 -3 -19 0 -12 3 6 10 9 16 6 5 -3 0 14 -13 37 -27 55
-155 183 -233 235 -33 21 -61 46 -64 54 -3 12 -2 12 6 1 7 -10 11 -10 17 -1
19 31 -120 112 -229 132 -11 2 -25 21 -36 51 l-19 48 35 -4 c21 -3 34 -1 34 7
0 8 2 8 8 0 4 -6 30 -15 57 -19 28 -4 56 -12 63 -17 22 -19 26 1 5 22 -12 11
-23 16 -25 12 -2 -4 -23 -4 -48 -1 l-45 6 39 1 c22 1 36 5 33 9 -4 3 -25 6
-47 5 -22 -1 -40 3 -40 8 0 6 -31 10 -71 10 -52 0 -70 3 -66 13 2 8 26 12 66
13 75 2 96 14 23 14 l-51 0 21 38 c12 20 25 39 29 42 6 4 14 106 9 120 -1 3
-3 12 -5 20 -22 112 -95 256 -151 300 -18 14 -18 14 -4 -5 14 -19 14 -19 -3
-6 -9 8 -15 16 -12 19 2 3 -31 43 -75 89 -44 47 -78 89 -74 94 3 5 2 8 -3 7
-4 -2 -10 1 -13 6 -3 5 -18 23 -35 41 -33 35 -77 116 -68 125 3 3 8 -1 10 -7
3 -7 10 -13 16 -13 7 1 -1 11 -16 24 -25 20 -27 26 -17 50 20 53 4 286 -27
396 -8 30 -17 74 -18 98 -3 36 -1 41 11 31 8 -7 14 -7 14 -1 0 5 -7 15 -15 22
-8 7 -15 21 -15 32 0 17 3 18 15 8 8 -7 12 -17 8 -23 -3 -5 -1 -7 4 -4 9 6 17
-7 27 -43 2 -7 47 -80 49 -80 1 0 3 11 3 24 1 15 -19 51 -53 97 -31 40 -61 93
-68 117 -15 47 -89 177 -221 387 -24 39 -44 76 -44 83 0 6 -4 12 -8 12 -12 0
-127 172 -126 187 1 7 -2 11 -6 8 -4 -2 -43 41 -86 98 -170 220 -264 311 -375
360 -30 13 -79 42 -108 65 -30 22 -66 46 -80 54 -14 7 -34 22 -44 33 -13 14
-17 15 -14 4 4 -13 -4 -14 -65 -7 -56 7 -78 15 -109 40 -43 35 -88 41 -201 29z
m-653 -161 c-3 -5 -11 -10 -16 -10 -6 0 -7 5 -4 10 3 6 11 10 16 10 6 0 7 -4
4 -10z m1765 -595 c17 -25 29 -45 26 -45 -3 0 -19 20 -36 45 -17 25 -29 45
-26 45 3 0 19 -20 36 -45z m-2670 -485 c-6 -11 -16 -20 -22 -20 -6 0 -3 9 7
20 10 11 20 20 22 20 2 0 -1 -9 -7 -20z m-73 -232 c-3 -8 -6 -5 -6 6 -1 11 2
17 5 13 3 -3 4 -12 1 -19z m3223 -69 c15 -28 5 -23 -15 7 -9 15 -12 23 -6 20
6 -4 16 -16 21 -27z m-3320 -666 c-11 -17 -11 -17 -6 0 3 10 6 24 7 30 0 9 2
9 5 0 3 -7 0 -20 -6 -30z m3328 -8 c-3 -3 -9 2 -12 12 -6 14 -5 15 5 6 7 -7
10 -15 7 -18z m-3337 -38 c-10 -9 -11 -8 -5 6 3 10 9 15 12 12 3 -3 0 -11 -7
-18z m3368 -17 c11 -24 11 -24 -3 -6 -9 11 -16 24 -16 30 0 12 5 7 19 -24z
m-3355 -70 c4 -25 3 -31 -4 -20 -5 8 -10 26 -10 39 0 32 6 24 14 -19z m-78
-118 c-8 -53 -18 -124 -22 -157 -9 -89 -38 -195 -63 -235 l-23 -35 5 70 5 70
-15 -40 c-8 -22 -13 -56 -13 -75 3 -51 1 -60 -10 -60 -6 0 -7 19 -4 48 10 85
25 152 35 152 5 0 9 11 9 25 0 22 34 106 72 178 5 9 6 17 3 17 -2 0 -20 -30
-40 -67 l-34 -68 5 50 c3 28 9 65 14 83 12 46 83 169 88 154 2 -7 -3 -57 -12
-110z m11 -104 c-2 -13 -4 -5 -4 17 -1 22 1 32 4 23 2 -10 2 -28 0 -40z m3702
2 c17 -28 31 -54 31 -58 0 -8 -35 41 -56 81 -24 45 -8 30 25 -23z m-3785 -340
c-10 -16 -20 -28 -22 -26 -4 5 28 56 35 56 2 0 -4 -13 -13 -30z m3859 -127
c-13 -2 -33 -2 -45 0 -13 2 -3 4 22 4 25 0 35 -2 23 -4z m187 -209 c0 -2 -9 0
-20 6 -11 6 -20 13 -20 16 0 2 9 0 20 -6 11 -6 20 -13 20 -16z m180 -172 c22
-18 49 -47 61 -65 16 -22 6 -16 -32 21 -30 29 -75 65 -101 80 -27 15 -48 31
-48 35 0 11 75 -33 120 -71z m-4608 -196 c-39 -39 -80 -92 -92 -119 -26 -55
-44 -72 -34 -30 10 43 28 74 75 128 42 49 42 49 5 15 -51 -48 -79 -95 -91
-154 -14 -69 -36 -74 -23 -5 6 35 22 69 50 105 43 57 155 147 170 137 6 -3
-22 -38 -60 -77z m4692 29 c15 -19 23 -35 19 -35 -4 0 -18 16 -31 35 -29 45
-22 45 12 0z m-307 -75 c-47 -54 -57 -57 -29 -11 10 17 22 28 27 23 4 -4 6 0
2 9 -7 20 10 39 29 32 10 -4 2 -19 -29 -53z m133 -35 c0 -5 -5 -3 -10 5 -5 8
-10 20 -10 25 0 6 5 3 10 -5 5 -8 10 -19 10 -25z m-36 -7 c-3 -4 -9 -8 -15 -8
-5 0 -9 4 -9 8 0 5 7 9 15 9 8 0 12 -4 9 -9z m-154 -55 c-11 -17 -11 -17 -6 0
3 10 6 24 7 30 0 9 2 9 5 0 3 -7 0 -20 -6 -30z m130 33 c0 -2 -7 -9 -15 -16
-13 -11 -14 -10 -9 4 5 14 24 23 24 12z m59 -36 c-13 -16 -24 -28 -27 -26 -5
6 31 55 41 56 4 0 -2 -13 -14 -30z m-4726 5 c-3 -9 -8 -14 -10 -11 -3 3 -2 9
2 15 9 16 15 13 8 -4z m-40 -25 c-3 -12 -8 -19 -11 -16 -5 6 5 36 12 36 2 0 2
-9 -1 -20z m31 -60 c4 -25 3 -31 -4 -20 -5 8 -10 26 -10 39 0 32 6 24 14 -19z
m313 -102 c-2 -13 -4 -3 -4 22 0 25 2 35 4 23 2 -13 2 -33 0 -45z m-284 -212
c3 -30 1 -43 -4 -35 -8 13 -13 97 -5 88 2 -2 6 -26 9 -53z m50 -23 c3 -21 8
-47 12 -58 7 -19 7 -19 -10 -4 -19 18 -36 117 -18 106 6 -4 13 -23 16 -44z
m-69 -39 c3 -8 2 -12 -4 -9 -6 3 -10 10 -10 16 0 14 7 11 14 -7z m84 -69 c-3
-3 -9 2 -12 12 -6 14 -5 15 5 6 7 -7 10 -15 7 -18z m-9 -117 c-6 -27 -12 -48
-14 -46 -2 2 0 37 3 78 4 61 7 69 13 46 5 -16 3 -51 -2 -78z m4936 -133 c17
-66 31 -282 16 -250 -5 11 -10 38 -10 60 -1 40 -27 222 -37 260 -4 17 -3 17 5
4 6 -9 17 -42 26 -74z m-4963 -77 c-11 -34 -25 -93 -33 -131 -8 -41 -20 -74
-32 -85 -19 -16 -19 -16 -14 3 3 11 11 40 17 65 13 57 73 221 78 216 2 -2 -5
-33 -16 -68z m4997 -283 c0 -23 -2 -26 -9 -15 -5 8 -9 33 -9 55 1 35 2 37 9
15 4 -14 8 -38 9 -55z m26 7 c2 -17 11 -45 20 -61 16 -32 34 -161 19 -148 -15
14 -44 121 -50 187 -7 63 3 82 11 22z m-5080 -2 c-4 -12 -9 -19 -12 -17 -3 3
-2 15 2 27 4 12 9 19 12 17 3 -3 2 -15 -2 -27z m-30 -49 c3 -5 1 -12 -5 -16
-5 -3 -10 1 -10 9 0 18 6 21 15 7z m-10 -106 l13 50 1 -58 c1 -54 -27 -328
-34 -335 -2 -2 -9 22 -15 54 -12 55 -10 116 8 274 l7 65 4 -50 4 -50 12 50z
m5105 -51 c15 -72 15 -167 1 -191 -9 -14 -11 2 -10 72 1 50 -1 109 -6 133 -12
63 2 51 15 -14z m-5152 -328 c19 -41 19 -53 9 -150 -6 -58 -14 -106 -18 -106
-4 0 -16 21 -26 48 -14 36 -18 75 -18 172 0 69 4 143 9 165 l9 40 8 -62 c4
-34 17 -82 27 -107z m5169 72 c-3 -8 -6 -5 -6 6 -1 11 2 17 5 13 3 -3 4 -12 1
-19z m-3 -120 c4 -17 2 -28 -4 -28 -5 0 -10 14 -10 32 0 36 4 35 14 -4z m9
-78 c3 -11 1 -18 -4 -14 -5 3 -9 12 -9 20 0 20 7 17 13 -6z m-4106 -167 c17
-38 45 -115 63 -172 31 -103 31 -103 20 -210 -7 -64 -8 -130 -3 -166 4 -33 6
-107 2 -165 -3 -58 -6 -99 -7 -92 -1 8 -8 12 -14 9 -19 -6 -10 -49 15 -70 12
-11 34 -52 48 -93 38 -103 103 -198 154 -225 33 -18 40 -26 39 -48 -1 -14 -3
-33 -3 -41 -1 -8 -13 -20 -28 -26 -37 -16 -183 -18 -183 -4 0 14 -41 3 -56
-16 -6 -7 -28 -13 -50 -12 -117 1 -196 -3 -221 -14 -21 -8 -24 -12 -11 -15 9
-2 19 -10 22 -18 3 -10 -9 -15 -45 -20 -28 -4 -52 -5 -53 -4 -3 4 87 454 102
509 l9 35 12 -43 c15 -53 9 -83 -36 -190 -19 -46 -33 -85 -30 -88 8 -8 67 126
83 187 13 51 13 61 -5 117 -18 58 -18 64 -1 134 11 48 19 66 22 53 4 -12 6 -5
7 19 1 32 3 37 15 27 12 -10 17 -7 29 16 24 47 30 98 13 112 -18 15 -36 6 -37
-17 0 -9 -3 -12 -5 -6 -2 6 16 133 41 284 25 150 45 283 45 296 0 41 16 26 47
-43z m4183 2 c0 -6 -7 -20 -15 -31 -13 -17 -14 -15 -14 31 0 46 1 48 14 31 8
-11 15 -25 15 -31z m17 -357 c-3 -7 -5 -2 -5 12 0 14 2 19 5 13 2 -7 2 -19 0
-25z m-5350 -140 c-3 -7 -5 -2 -5 12 0 14 2 19 5 13 2 -7 2 -19 0 -25z m-15
-70 c-6 -6 -7 0 -4 19 5 21 7 23 10 9 2 -10 0 -22 -6 -28z m5452 -520 c8 -57
17 -148 21 -203 8 -143 16 -237 21 -260 4 -12 -2 -8 -14 11 -14 21 -22 56 -26
110 -4 55 -3 71 4 54 8 -22 9 -20 5 10 -3 19 -5 54 -5 77 1 23 -3 44 -8 47 -5
3 -13 50 -16 103 -4 54 -9 121 -11 148 -9 86 12 17 29 -97z m-1150 102 c-10
-16 -20 -28 -22 -26 -4 5 28 56 35 56 2 0 -4 -13 -13 -30z m-4387 -197 c-3
-10 -5 -2 -5 17 0 19 2 27 5 18 2 -10 2 -26 0 -35z m4647 -129 c12 -56 14 -92
8 -120 l-9 -39 -6 40 c-9 61 -20 211 -14 205 3 -3 12 -41 21 -86z m-3517 -60
c-3 -3 -12 -4 -19 -1 -8 3 -5 6 6 6 11 1 17 -2 13 -5z m3532 -161 c1 -12 5
-25 11 -28 6 -4 7 6 3 27 -3 18 -2 30 2 26 14 -14 35 -181 28 -232 -6 -47 -7
-43 -34 90 -16 77 -29 148 -28 159 l0 20 9 -20 c5 -11 9 -30 9 -42z m948 -15
c-3 -7 -5 -2 -5 12 0 14 2 19 5 13 2 -7 2 -19 0 -25z m-33 -41 c7 -6 6 -7 -4
-4 -8 2 -16 12 -17 23 -2 13 -1 15 4 4 3 -8 11 -19 17 -23z m15 -144 c0 -18
-3 -33 -9 -33 -6 0 -9 27 -9 63 1 49 3 56 9 32 4 -16 8 -45 9 -62z m-1688 20
c-11 -21 -20 -32 -21 -25 0 17 30 75 36 69 3 -3 -4 -22 -15 -44z m826 -195
c-2 -13 -4 -3 -4 22 0 25 2 35 4 23 2 -13 2 -33 0 -45z m872 5 c-1 -62 -6 -56
-11 15 -2 23 0 42 4 42 5 0 7 -26 7 -57z m55 -85 c21 -89 20 -124 -5 -164 -25
-41 -42 -44 -32 -6 4 15 7 87 7 161 1 75 4 122 8 105 4 -16 14 -59 22 -96z
m-7794 -58 c0 -5 -17 -10 -37 -9 -31 0 -34 2 -18 9 28 12 55 12 55 0z m-30
-33 c0 -2 -15 -18 -34 -35 l-35 -31 3 27 c2 15 4 30 5 35 1 7 61 11 61 4z
m-99 -49 c16 -18 26 -34 21 -36 -4 -1 -98 -31 -207 -66 -110 -35 -209 -66
-220 -70 -17 -7 -16 -4 4 12 13 11 53 29 88 42 34 12 63 26 63 30 0 4 18 15
40 25 22 10 40 21 40 25 0 5 7 11 16 14 12 5 15 2 10 -11 -5 -11 5 -6 26 13
33 31 66 53 81 54 4 0 21 -15 38 -32z m198 11 c-22 -14 -33 -10 -19 6 7 8 17
12 22 9 6 -4 5 -10 -3 -15z m-832 -155 c-3 -3 -12 -4 -19 -1 -8 3 -5 6 6 6 11
1 17 -2 13 -5z m62 -20 c3 -3 0 -9 -5 -14 -12 -12 -84 -1 -84 12 0 9 19 7 67
-8 11 -3 8 1 -7 11 l-25 16 25 -7 c14 -3 27 -8 29 -10z m141 -4 c0 -11 -50
-34 -57 -26 -3 2 8 11 24 20 34 19 33 18 33 6z m-195 -40 c-3 -5 -10 -10 -16
-10 -5 0 -9 5 -9 10 0 6 7 10 16 10 8 0 12 -4 9 -10z m-500 -39 c3 -5 1 -12
-5 -16 -5 -3 -10 1 -10 9 0 18 6 21 15 7z m374 -15 c-2 -2 -45 -18 -95 -35
-85 -29 -95 -30 -143 -19 -54 12 -71 7 -52 -15 9 -11 0 -17 -49 -32 -33 -10
-62 -16 -65 -13 -3 3 12 21 34 40 32 30 51 38 112 48 41 7 92 16 114 20 42 8
151 13 144 6z m7 -31 c-11 -8 -24 -15 -30 -15 -5 0 -17 -7 -26 -15 -22 -20
-98 -41 -135 -37 -24 3 -8 11 80 42 124 42 138 46 111 25z m6909 -131 c4 -44
3 -51 -4 -29 -14 46 -21 123 -11 104 5 -9 12 -43 15 -75z m-7136 47 c11 -7 3
-12 -30 -20 -24 -7 -75 -23 -114 -36 -76 -27 -109 -31 -103 -14 5 14 174 77
208 78 14 0 31 -3 39 -8z m-326 -129 c-18 -31 -53 -59 -53 -42 0 12 61 82 67
77 2 -2 -4 -18 -14 -35z m9333 -40 c11 -23 14 -45 9 -69 -3 -19 -8 -33 -11
-30 -3 2 -15 44 -28 93 -22 80 -22 85 -5 63 10 -13 26 -39 35 -57z m-9266 64
c0 -3 -4 -8 -10 -11 -5 -3 -10 -1 -10 4 0 6 5 11 10 11 6 0 10 -2 10 -4z
m-297 -153 c-4 -42 -11 -54 -52 -90 -25 -24 -69 -56 -97 -72 -28 -16 -63 -44
-79 -62 l-27 -33 -19 23 -19 23 131 129 c72 71 139 129 149 129 15 0 17 -7 13
-47z m87 25 c0 -7 -12 -21 -25 -31 -21 -15 -25 -15 -25 -3 0 16 26 46 41 46 5
0 9 -6 9 -12z m7639 -138 c1 -19 -4 -42 -9 -50 -7 -10 -9 14 -9 75 1 75 3 83
10 50 4 -22 8 -56 8 -75z m1860 53 c-1 -39 -3 -50 -8 -34 -6 24 -3 91 5 91 2
0 4 -26 3 -57z m-9741 -193 c-11 -41 -21 -47 -48 -30 -12 8 -10 14 15 40 38
40 45 38 33 -10z m-38 -85 c41 -21 39 -53 -4 -87 l-34 -27 -6 31 c-9 47 -7 98
4 98 6 0 24 -7 40 -15z m9838 -50 c-3 -3 -9 2 -12 12 -6 14 -5 15 5 6 7 -7 10
-15 7 -18z m-9758 -157 c1 -17 -38 -6 -59 16 l-22 24 23 16 c22 15 23 15 40
-16 9 -18 17 -36 18 -40z m199 -177 c12 -8 12 -12 -2 -25 -9 -9 -14 -23 -11
-31 5 -11 -1 -15 -20 -15 -34 0 -42 21 -21 54 18 27 31 31 54 17z m1557 -26
c-10 -8 -24 -11 -30 -8 -6 4 0 10 14 14 36 10 37 10 16 -6z m-1510 -21 c-3 -9
-6 -18 -6 -21 0 -3 -7 0 -15 7 -13 11 -13 15 -3 21 21 13 31 10 24 -7z m1869
1 c-51 -16 -132 -30 -124 -21 7 7 126 35 149 34 8 0 -3 -6 -25 -13z m-1724
-55 c5 0 9 -13 9 -30 l0 -30 -56 28 -56 27 33 6 c19 4 40 5 47 3 8 -2 18 -4
23 -4z m1313 -17 c3 -4 -28 -24 -70 -46 -43 -21 -93 -49 -112 -62 -20 -14 -38
-23 -40 -21 -8 8 31 56 45 56 29 0 113 43 118 61 6 19 44 26 59 12z m-239 -38
c-42 -19 -66 -19 -41 0 11 8 31 15 45 14 26 -1 26 -1 -4 -14z m-109 -235 c-49
-54 -101 -137 -117 -185 -22 -66 -43 -72 -65 -19 -14 33 -13 39 6 77 21 42
103 116 163 149 49 26 52 21 13 -22z m-139 -355 l4 -57 -33 7 c-18 4 -36 10
-41 14 -4 4 7 29 23 55 17 27 34 46 37 43 3 -3 7 -31 10 -62z m1198 -485 c-4
-7 -28 -8 -65 -4 -68 7 -130 -2 -130 -19 0 -9 -39 -12 -143 -14 l-142 -1 100
13 c55 7 123 18 150 23 71 14 238 15 230 2z m45 0 c0 -5 -5 -10 -11 -10 -5 0
-7 5 -4 10 3 6 8 10 11 10 2 0 4 -4 4 -10z m1055 0 c17 -7 16 -9 -10 -9 -16 0
-39 4 -50 9 -17 7 -16 9 10 9 17 0 39 -4 50 -9z m223 -10 c28 0 52 -4 52 -9 0
-12 -135 -2 -165 11 -14 6 -8 7 20 3 22 -2 64 -5 93 -5z m-575 -40 c-16 -29
-22 -31 -56 -27 -37 5 -38 5 -21 -14 9 -10 24 -19 32 -19 11 0 12 -3 4 -13 -8
-10 -29 -11 -84 -6 -40 4 -134 8 -208 9 -74 1 -164 7 -200 14 l-65 13 60 6
c33 4 123 14 200 23 77 8 177 21 222 28 73 12 84 11 99 -3 17 -15 17 -15 5 1
-10 14 -9 17 6 20 26 6 27 3 6 -32z m-783 20 c0 -6 -30 -10 -70 -10 -40 0 -70
4 -70 10 0 6 30 10 70 10 40 0 70 -4 70 -10z m1035 -9 l40 -7 -62 -32 c-71
-36 -137 -51 -148 -32 -5 7 -2 16 7 21 8 4 26 18 39 29 22 19 22 20 2 11 -36
-18 -55 -14 -44 7 8 16 19 18 68 14 32 -2 76 -8 98 -11z m-1527 -16 c3 -3 -6
-5 -20 -5 -14 0 -31 7 -38 15 -10 12 -7 13 21 5 17 -5 34 -12 37 -15z m92 -35
c0 -5 -19 -9 -42 -9 l-43 2 35 7 c19 4 38 8 43 9 4 0 7 -3 7 -9z m1095 -65
c-35 -17 -71 -19 -80 -6 -5 8 25 14 95 18 8 1 2 -5 -15 -12z m69 3 c-5 -7 -2
-9 8 -5 11 4 18 -1 21 -13 11 -41 -50 -58 -108 -31 l-40 18 40 12 c22 6 47 15
55 21 20 13 33 12 24 -2z m-1029 -17 c19 -8 19 -8 -2 -15 -24 -8 -43 -1 -43
15 0 11 17 11 45 0z"/>
<path d="M4991 9753 c-10 -26 -10 -27 4 -9 8 11 15 23 15 28 0 15 -7 8 -19
-19z"/>
<path d="M4976 9663 c-6 -14 -5 -15 5 -6 7 7 10 15 7 18 -3 3 -9 -2 -12 -12z"/>
<path d="M4599 8803 c-13 -16 -12 -17 4 -4 16 13 21 21 13 21 -2 0 -10 -8 -17
-17z"/>
<path d="M6290 12330 c-9 -6 -10 -10 -3 -10 6 0 15 5 18 10 8 12 4 12 -15 0z"/>
<path d="M7308 12293 c7 -3 16 -2 19 1 4 3 -2 6 -13 5 -11 0 -14 -3 -6 -6z"/>
<path d="M6111 12259 c-32 -13 -105 -83 -74 -72 12 4 32 17 45 28 13 11 34 28
48 38 27 19 19 21 -19 6z"/>
<path d="M5815 12050 c-3 -5 -2 -10 4 -10 5 0 13 5 16 10 3 6 2 10 -4 10 -5 0
-13 -4 -16 -10z"/>
<path d="M5799 12013 c-13 -17 -13 -17 6 -3 11 8 22 16 24 17 2 2 0 3 -6 3 -6
0 -17 -8 -24 -17z"/>
<path d="M5760 11965 c-11 -13 -10 -14 4 -9 9 3 16 10 16 15 0 13 -6 11 -20
-6z"/>
<path d="M5669 11923 c-13 -16 -12 -17 4 -4 16 13 21 21 13 21 -2 0 -10 -8
-17 -17z"/>
<path d="M5420 11460 c-17 -33 -28 -60 -25 -60 2 0 18 27 35 60 17 33 28 60
25 60 -2 0 -18 -27 -35 -60z"/>
<path d="M5360 11350 c-6 -11 -8 -20 -6 -20 3 0 10 9 16 20 6 11 8 20 6 20 -3
0 -10 -9 -16 -20z"/>
<path d="M5330 11300 c-6 -11 -8 -20 -6 -20 3 0 10 9 16 20 6 11 8 20 6 20 -3
0 -10 -9 -16 -20z"/>
<path d="M5285 11228 c-16 -24 -22 -38 -14 -31 15 12 53 73 46 73 -2 0 -17
-19 -32 -42z"/>
<path d="M5239 11163 c-13 -16 -12 -17 4 -4 16 13 21 21 13 21 -2 0 -10 -8
-17 -17z"/>
<path d="M8440 10880 c6 -11 13 -20 16 -20 2 0 0 9 -6 20 -6 11 -13 20 -16 20
-2 0 0 -9 6 -20z"/>
<path d="M8397 10817 c15 -19 30 -33 31 -31 6 4 -41 64 -51 64 -5 0 4 -15 20
-33z"/>
<path d="M8470 10830 c6 -11 13 -20 16 -20 2 0 0 9 -6 20 -6 11 -13 20 -16 20
-2 0 0 -9 6 -20z"/>
<path d="M5022 10785 c-30 -62 -27 -71 4 -12 14 27 24 51 22 53 -3 2 -14 -17
-26 -41z"/>
<path d="M8464 10788 c1 -13 12 -43 25 -68 l22 -45 -7 40 c-6 38 -30 95 -39
95 -2 0 -3 -10 -1 -22z"/>
<path d="M8456 10717 c3 -10 9 -15 12 -12 3 3 0 11 -7 18 -10 9 -11 8 -5 -6z"/>
<path d="M5141 10684 c0 -11 3 -14 6 -6 3 7 2 16 -1 19 -3 4 -6 -2 -5 -13z"/>
<path d="M8538 10673 c5 -21 7 -23 10 -9 2 10 0 22 -6 28 -6 6 -7 0 -4 -19z"/>
<path d="M4986 10595 c4 -22 9 -66 13 -97 4 -32 10 -60 14 -64 9 -10 -5 106
-20 156 l-13 45 6 -40z"/>
<path d="M8516 10528 c-9 -46 -16 -103 -14 -128 4 -43 5 -42 6 12 2 61 11 96
21 80 3 -6 7 19 8 54 2 35 2 64 0 64 -1 0 -11 -37 -21 -82z"/>
<path d="M5092 10540 c0 -14 2 -19 5 -12 2 6 2 18 0 25 -3 6 -5 1 -5 -13z"/>
<path d="M5036 10515 c8 -37 14 -45 14 -19 0 10 -5 26 -10 34 -8 11 -9 7 -4
-15z"/>
<path d="M8552 10480 c0 -14 2 -19 5 -12 2 6 2 18 0 25 -3 6 -5 1 -5 -13z"/>
<path d="M5106 10467 c3 -10 9 -15 12 -12 3 3 0 11 -7 18 -10 9 -11 8 -5 -6z"/>
<path d="M8522 10450 c0 -14 2 -19 5 -12 2 6 2 18 0 25 -3 6 -5 1 -5 -13z"/>
<path d="M5062 10415 c0 -16 2 -22 5 -12 2 9 2 23 0 30 -3 6 -5 -1 -5 -18z"/>
<path d="M5031 10394 c0 -11 3 -14 6 -6 3 7 2 16 -1 19 -3 4 -6 -2 -5 -13z"/>
<path d="M8533 10320 c0 -41 2 -58 4 -37 2 20 2 54 0 75 -2 20 -4 3 -4 -38z"/>
<path d="M5017 10307 c-3 -19 -2 -49 3 -68 7 -29 8 -24 9 34 1 73 -3 86 -12
34z"/>
<path d="M8446 10276 c-19 -31 -20 -37 -3 -30 7 2 22 -4 32 -16 10 -11 23 -20
29 -20 6 0 -4 12 -22 26 -26 21 -30 29 -21 40 7 8 10 17 7 20 -3 2 -13 -7 -22
-20z"/>
<path d="M8508 10237 c6 -7 8 -24 5 -37 -4 -16 -3 -21 5 -16 18 11 14 53 -4
60 -13 5 -14 4 -6 -7z"/>
<path d="M8540 10187 c0 -2 28 -25 63 -51 34 -26 46 -33 27 -16 -40 36 -90 73
-90 67z"/>
<path d="M5021 10144 c0 -11 3 -14 6 -6 3 7 2 16 -1 19 -3 4 -6 -2 -5 -13z"/>
<path d="M8685 10070 c10 -11 20 -20 23 -20 3 0 -3 9 -13 20 -10 11 -20 20
-23 20 -3 0 3 -9 13 -20z"/>
<path d="M8720 10046 c0 -2 8 -10 18 -17 15 -13 16 -12 3 4 -13 16 -21 21 -21
13z"/>
<path d="M8769 10007 c15 -19 71 -61 71 -54 0 2 -19 19 -42 37 -24 19 -37 26
-29 17z"/>
<path d="M8844 9925 c3 -21 16 -31 16 -12 0 9 -4 18 -9 21 -5 4 -8 -1 -7 -9z"/>
<path d="M8866 9877 c3 -10 9 -15 12 -12 3 3 0 11 -7 18 -10 9 -11 8 -5 -6z"/>
<path d="M8881 9834 c0 -11 3 -14 6 -6 3 7 2 16 -1 19 -3 4 -6 -2 -5 -13z"/>
<path d="M8898 9780 c2 -16 6 -30 8 -30 2 0 4 14 4 30 0 17 -4 30 -8 30 -5 0
-7 -13 -4 -30z"/>
<path d="M8884 9699 c-7 -24 -15 -55 -18 -69 -4 -14 3 -3 14 24 12 27 20 58
18 69 -2 13 -7 4 -14 -24z"/>
<path d="M8908 9383 c7 -3 16 -2 19 1 4 3 -2 6 -13 5 -11 0 -14 -3 -6 -6z"/>
<path d="M8860 9289 c0 -5 17 -9 37 -9 43 0 41 6 -4 13 -18 3 -33 1 -33 -4z"/>
<path d="M9073 9287 c4 -10 7 -27 7 -38 0 -10 4 -19 9 -19 10 0 -3 58 -15 69
-4 3 -4 -2 -1 -12z"/>
<path d="M9130 9229 c11 -24 20 -60 21 -79 1 -26 3 -29 6 -11 6 30 -15 107
-33 122 -9 8 -7 -3 6 -32z"/>
<path d="M9025 9250 c3 -5 8 -10 11 -10 2 0 4 5 4 10 0 6 -5 10 -11 10 -5 0
-7 -4 -4 -10z"/>
<path d="M4734 9218 l-19 -23 23 19 c12 11 22 21 22 23 0 8 -8 2 -26 -19z"/>
<path d="M4729 9129 l-24 -20 28 17 c15 9 27 18 27 20 0 8 -8 4 -31 -17z"/>
<path d="M4579 9033 l-24 -28 28 24 c25 23 32 31 24 31 -2 0 -14 -12 -28 -27z"/>
<path d="M4333 8340 c-16 -47 -26 -98 -28 -138 -1 -25 5 -39 23 -53 35 -27 44
-24 24 11 -9 16 -20 30 -24 30 -5 0 -8 5 -8 11 0 5 5 7 12 3 8 -5 9 5 5 36 -3
24 -1 52 4 62 6 11 9 31 7 46 -3 26 -4 26 -15 -8z m-2 -177 c13 -16 12 -17 -3
-4 -10 7 -18 15 -18 17 0 8 8 3 21 -13z"/>
<path d="M4352 7823 c-12 -40 -3 -34 16 10 6 15 8 27 3 27 -4 0 -13 -16 -19
-37z"/>
<path d="M9540 7066 c0 -14 -4 -26 -9 -26 -11 0 -5 -69 9 -103 8 -20 9 -19 9
11 1 21 6 32 16 32 17 0 21 16 5 22 -6 2 -11 20 -12 41 -1 42 -18 63 -18 23z"/>
<path d="M9537 6893 c-4 -3 -7 -11 -7 -17 0 -6 5 -5 12 2 6 6 9 14 7 17 -3 3
-9 2 -12 -2z"/>
<path d="M9591 6063 c-10 -25 -10 -26 3 -9 8 10 19 15 25 11 7 -3 8 0 5 9 -9
23 -19 19 -33 -11z"/>
<path d="M2125 4700 c-3 -5 1 -10 9 -10 8 0 18 5 21 10 3 6 -1 10 -9 10 -8 0
-18 -4 -21 -10z"/>
<path d="M2341 1730 c-1 -19 -35 -53 -80 -83 -19 -12 -36 -29 -39 -37 -3 -9 2
-7 12 5 14 19 15 18 6 -15 -7 -29 -7 -32 3 -15 7 11 28 35 46 54 l35 33 23
-26 c28 -33 31 -33 25 0 -4 24 -2 26 19 19 13 -4 40 -16 59 -27 34 -19 34 -19
-9 21 -24 23 -54 44 -67 47 -13 3 -25 13 -27 22 -4 14 -5 14 -6 2z"/>
<path d="M2530 1680 c8 -5 22 -9 30 -9 10 0 8 3 -5 9 -27 12 -43 12 -25 0z"/>
</g>
</svg>
